<?xml version="1.0" encoding="UTF-8"?>
<svg version="1.1" xmlns="http://www.w3.org/2000/svg" width="500" height="500">
<path d="M0 0 C1.61304365 -0.02316318 3.22672532 0.00648994 4.83938599 0.04858398 C7.93869045 3.14788845 6.34767052 14.71983855 6.40921021 19.11108398 C6.44580785 21.14241497 6.50031619 23.17350713 6.57327271 25.20385742 C7.16789527 42.00125985 7.16789527 42.00125985 4.05300903 46.80151367 C1.72762254 48.63283928 -0.46889546 49.83360939 -3.16061401 51.04858398 C-4.46613053 51.92218844 -5.75790088 52.81685923 -7.03170776 53.73608398 C-8.21767286 54.51127507 -9.40642742 55.28221758 -10.59811401 56.04858398 C-11.20848511 56.45463867 -11.8188562 56.86069336 -12.44772339 57.27905273 C-13.97821376 58.26788113 -15.56568627 59.16745524 -17.16061401 60.04858398 C-17.82061401 59.71858398 -18.48061401 59.38858398 -19.16061401 59.04858398 C-19.16061401 43.20858398 -19.16061401 27.36858398 -19.16061401 11.04858398 C-25.10061401 11.04858398 -31.04061401 11.04858398 -37.16061401 11.04858398 C-37.16061401 44.70858398 -37.16061401 78.36858398 -37.16061401 113.04858398 C-31.22061401 113.04858398 -25.28061401 113.04858398 -19.16061401 113.04858398 C-19.23916626 111.64688965 -19.31771851 110.24519531 -19.39865112 108.80102539 C-19.67158469 103.56552664 -19.84281918 98.33064274 -19.98458862 93.09008789 C-20.05971311 90.82924485 -20.16186065 88.56912338 -20.29220581 86.31079102 C-21.30818986 68.24619627 -21.30818986 68.24619627 -17.85543823 63.10525513 C-13.93632532 59.24651639 -9.18629574 57.1211541 -4.16061401 55.04858398 C9.88137576 49.15951267 9.88137576 49.15951267 20.83938599 39.04858398 C24.78309366 27.61200091 22.98605122 13.86593781 21.83938599 2.04858398 C25.15188599 0.92358398 25.15188599 0.92358398 28.83938599 0.04858398 C31.83938599 2.04858398 31.83938599 2.04858398 32.27416992 3.8677063 C32.30068634 4.60302582 32.32720276 5.33834534 32.35452271 6.09594727 C32.38980072 6.930867 32.42507874 7.76578674 32.46142578 8.62600708 C32.48044952 9.53116058 32.49947327 10.43631409 32.51907349 11.36889648 C32.54091705 12.30152313 32.56276062 13.23414978 32.58526611 14.19503784 C32.62242012 16.17374171 32.65038735 18.15263586 32.66995239 20.1315918 C32.71395397 23.14400758 32.83259499 26.14775274 32.95266724 29.15795898 C33.26135287 43.11053521 33.26135287 43.11053521 29.6867981 47.98242188 C26.83501803 50.09299593 24.06075741 51.57272245 20.83938599 53.04858398 C19.10576508 54.10766411 17.38248819 55.18391423 15.67141724 56.27905273 C14.00144654 57.27015249 12.32828402 58.25589497 10.65188599 59.23608398 C8.16341102 60.70541447 5.67612913 62.17651363 3.19338989 63.65551758 C1.6315776 64.57977613 0.06087651 65.48918585 -1.51852417 66.38305664 C-2.24217163 66.80506348 -2.96581909 67.22707031 -3.71139526 67.66186523 C-4.35375122 68.02707275 -4.99610718 68.39228027 -5.65792847 68.76855469 C-7.62179935 70.44143447 -7.69466075 71.52936948 -8.16061401 74.04858398 C-8.24055072 75.69238991 -8.26830813 77.3391455 -8.25827026 78.98486328 C-8.25331543 80.45109383 -8.25331543 80.45109383 -8.2482605 81.94694519 C-8.23996216 82.99497818 -8.23166382 84.04301117 -8.22311401 85.12280273 C-8.21932739 86.20237747 -8.21554077 87.28195221 -8.2116394 88.39424133 C-8.19942033 91.84156267 -8.18078059 95.28880052 -8.16061401 98.73608398 C-8.13414414 103.28165447 -8.11410032 107.82718469 -8.09811401 112.37280273 C-8.08981567 113.42690842 -8.08151733 114.4810141 -8.07296753 115.56706238 C-8.0680127 117.0191082 -8.0680127 117.0191082 -8.06295776 118.50048828 C-8.05772095 119.35668259 -8.05248413 120.21287689 -8.04708862 121.09501648 C-8.16061401 123.04858398 -8.16061401 123.04858398 -9.16061401 124.04858398 C-11.96054999 124.14961653 -14.73530045 124.18828486 -17.53561401 124.18139648 C-18.3752771 124.18235321 -19.21494019 124.18330994 -20.08004761 124.18429565 C-21.85885696 124.18497746 -23.63766879 124.18312315 -25.41647339 124.17895508 C-28.14895178 124.17360681 -30.88126578 124.17890004 -33.61373901 124.18530273 C-35.33769771 124.18464195 -37.06165631 124.18336079 -38.78561401 124.18139648 C-39.60851929 124.18342072 -40.43142456 124.18544495 -41.27926636 124.18753052 C-47.04566347 124.16353453 -47.04566347 124.16353453 -48.16061401 123.04858398 C-48.26063395 121.57163055 -48.29136652 120.08992192 -48.29432678 118.60958862 C-48.29859177 117.65070236 -48.30285675 116.6918161 -48.30725098 115.70387268 C-48.30679779 114.64313034 -48.3063446 113.582388 -48.30587769 112.48950195 C-48.3092363 111.37893936 -48.31259491 110.26837677 -48.3160553 109.12416077 C-48.32560228 105.42968648 -48.32751059 101.73525736 -48.32858276 98.04077148 C-48.33179383 95.48064149 -48.33515779 92.92051168 -48.33866882 90.36038208 C-48.34467023 84.98170469 -48.34655049 79.60304532 -48.34591675 74.22436523 C-48.34531731 68.0163683 -48.35583987 61.80845864 -48.37166041 55.60048378 C-48.38634337 49.62521928 -48.38990387 43.65000189 -48.38930702 37.67471695 C-48.39048716 35.13502777 -48.39491082 32.59533794 -48.40263939 30.05566025 C-48.41244682 26.49837804 -48.40955757 22.94131908 -48.40353394 19.3840332 C-48.40915344 18.33543625 -48.41477295 17.28683929 -48.42056274 16.20646667 C-48.39713007 10.75509261 -47.97811009 6.20040433 -46.16061401 1.04858398 C-40.02253532 0.90513706 -33.8844332 0.76275384 -27.74630737 0.62133789 C-25.66003764 0.57312476 -23.5737745 0.52462565 -21.48751831 0.47583008 C-18.48143185 0.40557096 -15.47532288 0.33635477 -12.46920776 0.26733398 C-11.54289047 0.24546021 -10.61657318 0.22358643 -9.66218567 0.2010498 C-6.44156212 0.12780986 -3.22063002 0.07241971 0 0 Z M-9.16061401 11.04858398 C-9.16061401 20.61858398 -9.16061401 30.18858398 -9.16061401 40.04858398 C-5.47684178 38.47022101 -5.47684178 38.47022101 -4.16061401 37.04858398 C-3.14010209 31.57231576 -3.00858347 26.23286655 -3.03561401 20.67358398 C-3.03174683 19.8550293 -3.02787964 19.03647461 -3.02389526 18.19311523 C-2.64730445 14.30949153 -2.64730445 14.30949153 -4.16061401 11.04858398 C-5.81061401 11.04858398 -7.46061401 11.04858398 -9.16061401 11.04858398 Z " fill="#F83332" transform="translate(234.16061401367188,187.951416015625)"/>
<path d="M0 0 C12.87 0 25.74 0 39 0 C39.02254723 15.88955445 39.04097929 31.77909629 39.05181217 47.66866207 C39.05697508 55.04595956 39.06401767 62.42324643 39.07543945 69.80053711 C39.08538646 76.2283218 39.09185347 82.6560988 39.09408849 89.08389097 C39.09539557 92.48939278 39.09848125 95.89487258 39.10573006 99.30036736 C39.11293606 103.09601041 39.11399113 106.89160712 39.11352539 110.68725586 C39.11712067 111.82445068 39.12071594 112.96164551 39.12442017 114.13330078 C39.1230455 115.16120224 39.12167084 116.1891037 39.12025452 117.24815369 C39.12117631 118.14690185 39.1220981 119.04565001 39.12304783 119.97163296 C39 122 39 122 38 123 C36.37325222 123.09340434 34.74245949 123.11745171 33.11303711 123.11352539 C32.07203354 123.11344986 31.03102997 123.11337433 29.95848083 123.11329651 C28.8262056 123.10813522 27.69393036 123.10297394 26.52734375 123.09765625 C24.79817467 123.09553383 24.79817467 123.09553383 23.03407288 123.09336853 C19.33518936 123.08775005 15.63636536 123.07519442 11.9375 123.0625 C9.43684983 123.05748738 6.93619871 123.05292406 4.43554688 123.04882812 C-1.70965588 123.03777462 -7.85482369 123.02101852 -14 123 C-17.62902569 82.37013892 -17.62902569 82.37013892 -11.87304688 74.49462891 C-6.40106891 69.227405 2.12096764 64 10 64 C10 80.17 10 96.34 10 113 C16.27 113 22.54 113 29 113 C28.9278125 109.94621094 28.855625 106.89242187 28.78125 103.74609375 C28.71111875 100.70077899 28.64189663 97.65544477 28.57275391 94.61010742 C28.5251951 92.53619233 28.4767307 90.46229776 28.42724609 88.38842773 C27.92839974 67.43179058 27.79946658 46.51503138 28.5 25.5625 C28.54850742 24.02930729 28.59668444 22.49610409 28.64453125 20.96289062 C28.75867167 17.30842919 28.87941104 13.65427621 29 10 C22.73 10 16.46 10 10 10 C10.05236816 11.41740479 10.10473633 12.83480957 10.15869141 14.29516602 C10.34014184 19.57056148 10.45464741 24.84568368 10.54931641 30.12329102 C10.59950674 32.4040367 10.66767853 34.68446217 10.75439453 36.96411133 C10.87619021 40.2490123 10.93250227 43.52965427 10.9765625 46.81640625 C11.02817535 47.83021866 11.07978821 48.84403107 11.13296509 49.88856506 C11.13638086 54.23213008 11.0770526 56.90461322 7.94548035 60.0894928 C5.37125554 61.90839876 2.75561515 63.47266429 0 65 C-1.19783595 65.79146885 -2.38805892 66.59473047 -3.56616211 67.4152832 C-4.62585205 68.11999756 -5.68554199 68.82471191 -6.77734375 69.55078125 C-7.64438683 70.12810249 -7.64438683 70.12810249 -8.52894592 70.71708679 C-10.33106062 71.91666963 -12.13424982 73.11462493 -13.9375 74.3125 C-15.16739062 75.13074979 -16.39720874 75.94910857 -17.62695312 76.76757812 C-19.86405803 78.25628594 -22.10165624 79.74424138 -24.33959961 81.23168945 C-26.22731687 82.48641425 -28.11401328 83.74267552 -30 85 C-30.32546778 87.81913093 -30.46501932 90.42966911 -30.4765625 93.25390625 C-30.49993179 94.47798439 -30.49993179 94.47798439 -30.52377319 95.72679138 C-30.5713953 98.33868441 -30.59909159 100.9503088 -30.625 103.5625 C-30.66143727 106.17807296 -30.70200938 108.79349184 -30.74765015 111.40892029 C-30.77496554 113.0381116 -30.79627795 114.66741612 -30.81118774 116.29676819 C-30.88935315 121.88935315 -30.88935315 121.88935315 -32 123 C-35.5 123.125 -35.5 123.125 -39 123 C-40.52099392 121.47900608 -40.1939835 120.08172151 -40.2722168 117.95849609 C-40.32051888 116.67113052 -40.32051888 116.67113052 -40.36979675 115.35775757 C-40.48045014 111.40888777 -40.56291192 107.4601858 -40.62475586 103.51025391 C-40.66638018 101.43033334 -40.72771413 99.35070823 -40.80932617 97.27197266 C-41.46982113 80.17536712 -41.46982113 80.17536712 -38.19750977 75.33227539 C-35.56011508 73.45233037 -32.97929123 72.26575098 -30 71 C-27.79661638 69.65669809 -25.61104345 68.28387078 -23.44140625 66.88671875 C-22.30495087 66.18584631 -21.16625743 65.48859033 -20.02539062 64.79492188 C-19.45667236 64.44872803 -18.8879541 64.10253418 -18.30200195 63.74584961 C-17.72796631 63.39659424 -17.15393066 63.04733887 -16.5625 62.6875 C-14.25067691 61.27576025 -11.93983846 59.86241706 -9.62890625 58.44921875 C-8.61900635 57.83393311 -7.60910645 57.21864746 -6.56860352 56.5847168 C-4.68984364 55.42560356 -2.8367936 54.22452907 -1 53 C-0.5232915 50.66257775 -0.5232915 50.66257775 -0.56762695 47.90771484 C-0.54783279 46.84676605 -0.52803864 45.78581726 -0.50764465 44.69271851 C-0.50125473 43.54373077 -0.49486481 42.39474304 -0.48828125 41.2109375 C-0.47033005 40.03737701 -0.45237885 38.86381653 -0.43388367 37.6546936 C-0.37956578 33.89483264 -0.34581552 30.13510015 -0.3125 26.375 C-0.27934597 23.8307112 -0.24485813 21.28643941 -0.20898438 18.7421875 C-0.12130849 12.49477096 -0.06142054 6.2479513 0 0 Z M-5 86 C-5.68594624 88.98556027 -5.68594624 88.98556027 -5.48828125 92.296875 C-5.47216797 93.50214844 -5.45605469 94.70742188 -5.43945312 95.94921875 C-5.39755859 97.20347656 -5.35566406 98.45773437 -5.3125 99.75 C-5.28994141 101.01972656 -5.26738281 102.28945313 -5.24414062 103.59765625 C-5.18520639 106.73295773 -5.10297079 109.86588595 -5 113 C-3.02 113 -1.04 113 1 113 C1 102.77 1 92.54 1 82 C-1.53378327 82 -3.33872745 84.38884993 -5 86 Z " fill="#010101" transform="translate(275,189)"/>
<path d="M0 0 C3 2 3 2 3.43478394 3.81912231 C3.46130035 4.55444183 3.48781677 5.28976135 3.51513672 6.04736328 C3.55041473 6.88228302 3.58569275 7.71720276 3.62203979 8.5774231 C3.64106354 9.4825766 3.66008728 10.3877301 3.6796875 11.3203125 C3.70153107 12.25293915 3.72337463 13.1855658 3.74588013 14.14645386 C3.78303413 16.12515772 3.81100136 18.10405187 3.83056641 20.08300781 C3.87456799 23.0954236 3.993209 26.09916875 4.11328125 29.109375 C4.42196689 43.06195122 4.42196689 43.06195122 0.84741211 47.93383789 C-2.00436796 50.04441195 -4.77862858 51.52413846 -8 53 C-9.7336209 54.05908012 -11.4568978 55.13533024 -13.16796875 56.23046875 C-14.83793945 57.22156851 -16.51110197 58.20731099 -18.1875 59.1875 C-20.67597497 60.65683049 -23.16325686 62.12792965 -25.64599609 63.60693359 C-27.20780838 64.53119214 -28.77850948 65.44060186 -30.35791016 66.33447266 C-31.08155762 66.75647949 -31.80520508 67.17848633 -32.55078125 67.61328125 C-33.19313721 67.97848877 -33.83549316 68.34369629 -34.49731445 68.7199707 C-36.46118534 70.39285049 -36.53404674 71.48078549 -37 74 C-37.0799367 75.64380592 -37.10769412 77.29056151 -37.09765625 78.9362793 C-37.09270142 80.40250984 -37.09270142 80.40250984 -37.08764648 81.89836121 C-37.07934814 82.9463942 -37.0710498 83.99442719 -37.0625 85.07421875 C-37.05871338 86.15379349 -37.05492676 87.23336823 -37.05102539 88.34565735 C-37.03880632 91.79297868 -37.02016657 95.24021654 -37 98.6875 C-36.97353013 103.23307049 -36.95348631 107.77860071 -36.9375 112.32421875 C-36.92920166 113.37832443 -36.92090332 114.43243011 -36.91235352 115.51847839 C-36.90739868 116.97052422 -36.90739868 116.97052422 -36.90234375 118.4519043 C-36.89710693 119.3080986 -36.89187012 120.16429291 -36.88647461 121.0464325 C-37 123 -37 123 -38 124 C-40.79993597 124.10103255 -43.57468644 124.13970088 -46.375 124.1328125 C-47.21466309 124.13376923 -48.05432617 124.13472595 -48.91943359 124.13571167 C-50.69824295 124.13639348 -52.47705477 124.13453917 -54.25585938 124.13037109 C-56.98833776 124.12502283 -59.72065176 124.13031605 -62.453125 124.13671875 C-64.1770837 124.13605797 -65.90104229 124.13477681 -67.625 124.1328125 C-68.44790527 124.13483673 -69.27081055 124.13686096 -70.11865234 124.13894653 C-75.88504946 124.11495054 -75.88504946 124.11495054 -77 123 C-77.10001994 121.52304657 -77.1307525 120.04133794 -77.13371277 118.56100464 C-77.13797775 117.60211838 -77.14224274 116.64323212 -77.14663696 115.6552887 C-77.14618378 114.59454636 -77.14573059 113.53380402 -77.14526367 112.44091797 C-77.14862228 111.33035538 -77.1519809 110.21979279 -77.15544128 109.07557678 C-77.16498826 105.38110249 -77.16689657 101.68667338 -77.16796875 97.9921875 C-77.17117982 95.4320575 -77.17454377 92.8719277 -77.17805481 90.3117981 C-77.18405622 84.9331207 -77.18593647 79.55446133 -77.18530273 74.17578125 C-77.1847033 67.96778432 -77.19522585 61.75987466 -77.2110464 55.55189979 C-77.22572936 49.57663529 -77.22928986 43.60141791 -77.22869301 37.62613297 C-77.22987315 35.08644378 -77.23429681 32.54675396 -77.24202538 30.00707626 C-77.2518328 26.44979406 -77.24894356 22.89273509 -77.24291992 19.33544922 C-77.24853943 18.28685226 -77.25415894 17.23825531 -77.25994873 16.15788269 C-77.25575424 15.18207748 -77.25155975 14.20627228 -77.24723816 13.20089722 C-77.24778293 12.36059904 -77.24832769 11.52030087 -77.24888897 10.65453911 C-77 8 -77 8 -75 1 C-60.48 1 -45.96 1 -31 1 C-31 1.33 -31 1.66 -31 2 C-45.52 2.33 -60.04 2.66 -75 3 C-75 42.27 -75 81.54 -75 122 C-63.12 122.33 -51.24 122.66 -39 123 C-38.87797262 105.30602968 -39.34996788 87.67879921 -40 70 C-39.34 70 -38.68 70 -38 70 C-37.505 68.515 -37.505 68.515 -37 67 C-36.01 66.67 -35.02 66.34 -34 66 C-34 65.01 -34 64.02 -34 63 C-34.99 63 -35.98 63 -37 63 C-38.66666667 63 -40.33333333 63 -42 63 C-42 63.66 -42 64.32 -42 65 C-43.32 65 -44.64 65 -46 65 C-46.33 81.5 -46.66 98 -47 115 C-53.6 115 -60.2 115 -67 115 C-68.52687327 113.47312673 -68.12899188 112.11269938 -68.13371277 109.98292542 C-68.13797775 109.1177832 -68.14224274 108.25264099 -68.14663696 107.36128235 C-68.14618378 106.40489365 -68.14573059 105.44850494 -68.14526367 104.46313477 C-68.14862228 103.46158356 -68.1519809 102.46003235 -68.15544128 101.4281311 C-68.16498297 98.09921039 -68.16689599 94.7703398 -68.16796875 91.44140625 C-68.17117904 89.13834105 -68.17454293 86.83527606 -68.17805481 84.5322113 C-68.1840541 79.69749478 -68.18589388 74.86279616 -68.18530273 70.02807617 C-68.18520105 63.81901958 -68.1988559 57.6100772 -68.21607494 51.40104771 C-68.22716841 46.64254728 -68.22922276 41.8840747 -68.22869301 37.12556267 C-68.22987704 34.83572941 -68.23432231 32.54589552 -68.24202538 30.25607491 C-68.25177208 27.05938742 -68.24896837 23.86295089 -68.24291992 20.66625977 C-68.24853943 19.71189529 -68.25415894 18.75753082 -68.25994873 17.77424622 C-68.25575424 16.90628418 -68.25155975 16.03832214 -68.24723816 15.14405823 C-68.24778293 14.38764321 -68.24832769 13.6312282 -68.24888897 12.85189152 C-68 11 -68 11 -66 9 C-64.15234375 8.75708008 -64.15234375 8.75708008 -61.9375 8.76953125 C-61.14085937 8.77146484 -60.34421875 8.77339844 -59.5234375 8.77539062 C-58.69070312 8.78763672 -57.85796875 8.79988281 -57 8.8125 C-56.16726562 8.81314453 -55.33453125 8.81378906 -54.4765625 8.81445312 C-48.28086515 8.85956743 -48.28086515 8.85956743 -46 10 C-46.33 25.51 -46.66 41.02 -47 57 C-45.68 57.33 -44.36 57.66 -43 58 C-44.32 58.66 -45.64 59.32 -47 60 C-48 59 -48 59 -48.12025452 57.05747986 C-48.1169236 55.78173851 -48.1169236 55.78173851 -48.11352539 54.48022461 C-48.11344986 53.51930405 -48.11337433 52.55838348 -48.11329651 51.56834412 C-48.10813522 50.523564 -48.10297394 49.47878387 -48.09765625 48.40234375 C-48.0962413 47.33834854 -48.09482635 46.27435333 -48.09336853 45.17811584 C-48.08775064 41.76454917 -48.07519511 38.351047 -48.0625 34.9375 C-48.05748731 32.62955824 -48.052924 30.32161545 -48.04882812 28.01367188 C-48.03777539 22.34242289 -48.02049877 16.6712224 -48 11 C-53.94 11 -59.88 11 -66 11 C-66 44.66 -66 78.32 -66 113 C-60.06 113 -54.12 113 -48 113 C-48.07855225 111.59830566 -48.15710449 110.19661133 -48.23803711 108.75244141 C-48.51097067 103.51694265 -48.68220516 98.28205875 -48.82397461 93.04150391 C-48.89909909 90.78066087 -49.00124664 88.5205394 -49.1315918 86.26220703 C-50.14757584 68.19761228 -50.14757584 68.19761228 -46.69482422 63.05667114 C-42.77571131 59.19793241 -38.02568173 57.07257012 -33 55 C-18.95801023 49.11092869 -18.95801023 49.11092869 -8 39 C-4.05629232 27.56341693 -5.85333476 13.81735383 -7 2 C-3.6875 0.875 -3.6875 0.875 0 0 Z " fill="#C53739" transform="translate(263,188)"/>
<path d="M0 0 C3 2 3 2 3.43478394 3.81912231 C3.46130035 4.55444183 3.48781677 5.28976135 3.51513672 6.04736328 C3.56805374 7.29974289 3.56805374 7.29974289 3.62203979 8.5774231 C3.65057541 9.93515335 3.65057541 9.93515335 3.6796875 11.3203125 C3.70153107 12.25293915 3.72337463 13.1855658 3.74588013 14.14645386 C3.78303413 16.12515772 3.81100136 18.10405187 3.83056641 20.08300781 C3.87456799 23.0954236 3.993209 26.09916875 4.11328125 29.109375 C4.41782471 43.12079113 4.41782471 43.12079113 0.68701172 48.06567383 C-2.15374712 50.17812526 -4.73846406 51.64066369 -8 53 C-8.99660645 53.44166504 -9.99321289 53.88333008 -11.02001953 54.33837891 C-12.69383508 55.04461298 -14.38777741 55.70579552 -16.1015625 56.30859375 C-17.9833624 56.84255028 -17.9833624 56.84255028 -19 58 C-20.66617115 58.04063832 -22.33388095 58.042721 -24 58 C-23.072383 49.96065267 -23.072383 49.96065267 -21 47 C-18.83932394 45.93684656 -16.6547802 44.92173362 -14.45703125 43.9375 C-11.22624471 42.19896113 -8.6086674 40.59074977 -7.25921631 37.06396484 C-6.1762362 31.4217761 -6.47684771 25.71185569 -6.6875 20 C-6.7045101 18.25395403 -6.71563385 16.50784022 -6.72070312 14.76171875 C-6.74580709 10.50400418 -6.8509823 6.25510663 -7 2 C-3.6875 0.875 -3.6875 0.875 0 0 Z " fill="#F23434" transform="translate(263,188)"/>
<path d="M0 0 C1.99954746 -0.04254356 4.00041636 -0.04080783 6 0 C9.09930446 3.09930446 7.50828454 14.67125456 7.56982422 19.0625 C7.60642186 21.09383099 7.66093021 23.12492315 7.73388672 25.15527344 C8.32914302 41.97057818 8.32914302 41.97057818 5.12792969 46.85839844 C2.78352668 48.73411532 0.78638227 49.90433214 -2 51 C-2.92345215 51.37656738 -3.8469043 51.75313477 -4.79833984 52.14111328 C-5.5248877 52.4245459 -6.25143555 52.70797852 -7 53 C-7 51.68 -7 50.36 -7 49 C-6.54625 48.566875 -6.0925 48.13375 -5.625 47.6875 C-3.20740175 45.1769172 -2.81523947 42.3236686 -2 39 C-2.99 39.66 -3.98 40.32 -5 41 C-6.32 41 -7.64 41 -9 41 C-10.43509221 38.12981559 -10.11158506 35.66456277 -10.09765625 32.4609375 C-10.09443359 31.15898437 -10.09121094 29.85703125 -10.08789062 28.515625 C-10.07953466 27.13541601 -10.07106971 25.75520768 -10.0625 24.375 C-10.05748501 22.98698074 -10.0529221 21.59895978 -10.04882812 20.2109375 C-10.03700976 16.80724868 -10.02053434 13.40364561 -10 10 C-7.69 10 -5.38 10 -3 10 C-3 10.33 -3 10.66 -3 11 C-4.65 11 -6.3 11 -8 11 C-8 20.57 -8 30.14 -8 40 C-3.77528059 37.49931982 -3.77528059 37.49931982 -3.28515625 33.96484375 C-2.93995412 29.16511546 -2.64862669 24.36995857 -2.4375 19.5625 C-2.37272461 18.17901367 -2.37272461 18.17901367 -2.30664062 16.76757812 C-2.20145069 14.51183837 -2.09930893 12.25600501 -2 10 C-1.34 10 -0.68 10 0 10 C1.60725635 13.21451269 1.05748185 16.43612536 1 20 C1.66 20 2.32 20 3 20 C3 14.06 3 8.12 3 2 C2.01 2 1.02 2 0 2 C0 1.34 0 0.68 0 0 Z " fill="#DF3636" transform="translate(233,188)"/>
<path d="M0 0 C0.73089844 0.00410889 1.46179688 0.00821777 2.21484375 0.01245117 C3.01148438 0.01438477 3.808125 0.01631836 4.62890625 0.01831055 C5.87800781 0.03667969 5.87800781 0.03667969 7.15234375 0.05541992 C7.98507813 0.05606445 8.8178125 0.05670898 9.67578125 0.05737305 C15.8714786 0.10248735 15.8714786 0.10248735 18.15234375 1.24291992 C17.82234375 16.75291992 17.49234375 32.26291992 17.15234375 48.24291992 C18.47234375 48.57291992 19.79234375 48.90291992 21.15234375 49.24291992 C19.83234375 49.90291992 18.51234375 50.56291992 17.15234375 51.24291992 C16.15234375 50.24291992 16.15234375 50.24291992 16.03208923 48.30039978 C16.03542015 47.02465843 16.03542015 47.02465843 16.03881836 45.72314453 C16.03889389 44.76222397 16.03896942 43.80130341 16.03904724 42.81126404 C16.04420853 41.76648392 16.04936981 40.7217038 16.0546875 39.64526367 C16.05610245 38.58126846 16.0575174 37.51727325 16.05897522 36.42103577 C16.06459311 33.00746909 16.07714864 29.59396693 16.08984375 26.18041992 C16.09485644 23.87247816 16.09941975 21.56453537 16.10351562 19.2565918 C16.11456836 13.58534281 16.13184498 7.91414232 16.15234375 2.24291992 C10.21234375 2.24291992 4.27234375 2.24291992 -1.84765625 2.24291992 C-1.84765625 35.90291992 -1.84765625 69.56291992 -1.84765625 104.24291992 C-2.17765625 104.24291992 -2.50765625 104.24291992 -2.84765625 104.24291992 C-2.98005155 94.63516126 -3.1105484 85.02737902 -3.23880768 75.41956425 C-3.29845874 70.95531541 -3.35869521 66.49107629 -3.42041016 62.02685547 C-3.57011486 51.17175178 -3.70536053 40.31660081 -3.82263184 29.46109772 C-3.84660446 27.33615119 -3.8734837 25.21126314 -3.90136719 23.08636475 C-3.94572469 19.5122479 -3.97732413 15.93829997 -4.00390625 12.36401367 C-4.01877075 11.34235611 -4.03363525 10.32069855 -4.0489502 9.26808167 C-4.0527771 8.35413132 -4.056604 7.44018097 -4.06054688 6.49853516 C-4.06783813 5.71663315 -4.07512939 4.93473114 -4.0826416 4.12913513 C-3.74481771 1.41744028 -2.71673185 0.35718131 0 0 Z " fill="#BD3F3F" transform="translate(198.84765625,196.757080078125)"/>
<path d="M0 0 C0.99 0.66 1.98 1.32 3 2 C3.36076355 3.87295532 3.36076355 3.87295532 3.34057617 6.17431641 C3.34034958 7.03505768 3.34012299 7.89579895 3.33988953 8.78262329 C3.32440567 9.71287323 3.30892181 10.64312317 3.29296875 11.6015625 C3.28872391 12.55316254 3.28447906 13.50476257 3.28010559 14.48519897 C3.26327896 17.53208414 3.22561954 20.57831391 3.1875 23.625 C3.17245831 25.68749046 3.15876901 27.74999127 3.14648438 29.8125 C3.11336239 34.8752535 3.06155284 39.93751554 3 45 C2.01 45.495 2.01 45.495 1 46 C1 31.81 1 17.62 1 3 C-0.98 3 -2.96 3 -5 3 C-4.98952637 3.90242432 -4.97905273 4.80484863 -4.96826172 5.73461914 C-4.93400464 9.10980833 -4.90901633 12.48481045 -4.89013672 15.86010742 C-4.8801315 17.31586641 -4.86652304 18.77160557 -4.84912109 20.22729492 C-4.82462956 22.3299654 -4.81346206 24.43236824 -4.8046875 26.53515625 C-4.79421387 27.797229 -4.78374023 29.05930176 -4.77294922 30.35961914 C-5.01270081 34.20363634 -5.68935379 37.38159837 -7 41 C-9.5 43 -9.5 43 -12 44 C-12.66 43.67 -13.32 43.34 -14 43 C-13.02659668 42.51499023 -12.05319336 42.02998047 -11.05029297 41.53027344 C-7.62620171 39.2296987 -7.62620171 39.2296987 -7.22705078 35.14941406 C-7.18624653 33.60532053 -7.17750329 32.06015491 -7.1953125 30.515625 C-7.18160614 29.70003113 -7.16789978 28.88443726 -7.15377808 28.04412842 C-7.11646132 25.44552534 -7.12019358 22.84883309 -7.125 20.25 C-7.1068742 18.48564719 -7.08607186 16.7213197 -7.0625 14.95703125 C-7.01063404 10.63770041 -6.99557026 6.31962517 -7 2 C-3.6875 0.875 -3.6875 0.875 0 0 Z " fill="#C23A3B" transform="translate(263,188)"/>
<path d="M0 0 C0 3.61029169 -0.96092582 6.55806676 -2 10 C-1.113125 9.690625 -0.22625 9.38125 0.6875 9.0625 C3.46709155 8.1709329 6.13136375 7.50622993 9 7 C7.3524116 8.35683751 5.68083079 9.68456721 4 11 C3.030625 11.763125 2.06125 12.52625 1.0625 13.3125 C-2 15 -2 15 -5.0625 14.875 C-7.79457662 14.06118994 -10.39235614 13.15043112 -13 12 C-11.63433069 7.23661125 -9.57416075 5.67769998 -5.375 3.1875 C-4.37210938 2.58292969 -3.36921875 1.97835937 -2.3359375 1.35546875 C-1.17964844 0.68451172 -1.17964844 0.68451172 0 0 Z " fill="#E03534" transform="translate(241,236)"/>
<path d="M0 0 C0.33 0 0.66 0 1 0 C1.71521339 7.34370894 2.10579082 14.62447616 2.125 22 C2.12951172 22.71728271 2.13402344 23.43456543 2.13867188 24.17358398 C2.1278767 27.99912535 1.75863502 31.20682491 1 35 C-9.89 35 -20.78 35 -32 35 C-32 34.67 -32 34.34 -32 34 C-31.09644775 33.97494385 -30.19289551 33.9498877 -29.26196289 33.92407227 C-25.9203572 33.82912683 -22.57893748 33.72988379 -19.23754883 33.62768555 C-17.7893576 33.5842837 -16.34111346 33.54261256 -14.89282227 33.50268555 C-12.81510441 33.44510938 -10.73765427 33.38137972 -8.66015625 33.31640625 C-6.78275757 33.26141968 -6.78275757 33.26141968 -4.86743164 33.20532227 C-2.10369496 33.32196094 -2.10369496 33.32196094 -1 32 C-0.84028023 29.62661361 -0.7407567 27.27881728 -0.68359375 24.90234375 C-0.66281265 24.19348526 -0.64203156 23.48462677 -0.62062073 22.75428772 C-0.55505402 20.48212695 -0.4962077 18.20984736 -0.4375 15.9375 C-0.39432151 14.40037817 -0.35070745 12.8632685 -0.30664062 11.32617188 C-0.19936551 7.5509041 -0.09811863 3.7755164 0 0 Z " fill="#E13333" transform="translate(223,276)"/>
<path d="M0 0 C0.83778992 0.00141495 1.67557983 0.0028299 2.53875732 0.00428772 C5.20816657 0.00987428 7.8774912 0.02242431 10.546875 0.03515625 C12.35937379 0.04017299 14.17187389 0.04473559 15.984375 0.04882812 C20.42190748 0.05983931 24.85937691 0.0770947 29.296875 0.09765625 C29.296875 0.42765625 29.296875 0.75765625 29.296875 1.09765625 C28.39855957 1.1227124 27.50024414 1.14776855 26.57470703 1.17358398 C23.24612631 1.26864318 19.91772506 1.36788046 16.58935547 1.4699707 C15.1479988 1.51331856 13.70659082 1.55499377 12.26513672 1.5949707 C10.19482959 1.65267713 8.12478068 1.71636996 6.0546875 1.78125 C4.8083252 1.81790771 3.56196289 1.85456543 2.27783203 1.89233398 C-0.62949442 1.90055104 -0.62949442 1.90055104 -2.703125 3.09765625 C-3.43006404 5.07654586 -4.10128751 7.07720183 -4.703125 9.09765625 C-4.8475 8.47890625 -4.991875 7.86015625 -5.140625 7.22265625 C-5.63464725 5.06507303 -5.63464725 5.06507303 -6.703125 3.09765625 C-8.023125 2.76765625 -9.343125 2.43765625 -10.703125 2.09765625 C-11.033125 6.05765625 -11.363125 10.01765625 -11.703125 14.09765625 C-12.033125 14.09765625 -12.363125 14.09765625 -12.703125 14.09765625 C-12.703125 9.80765625 -12.703125 5.51765625 -12.703125 1.09765625 C-8.37691107 0.01610277 -4.4176232 -0.02812951 0 0 Z " fill="#E93937" transform="translate(200.703125,189.90234375)"/>
<path d="M0 0 C-1.2065625 0.61875 -1.2065625 0.61875 -2.4375 1.25 C-5.09530889 2.69617933 -5.09530889 2.69617933 -5.65405273 4.83886719 C-6.0072422 7.04524202 -6.11361066 9.09450725 -6.09765625 11.328125 C-6.09443359 12.12734375 -6.09121094 12.9265625 -6.08789062 13.75 C-6.07951172 14.575 -6.07113281 15.4 -6.0625 16.25 C-6.05798828 17.09046875 -6.05347656 17.9309375 -6.04882812 18.796875 C-6.03707961 20.86461401 -6.01914522 22.93231624 -6 25 C-6.66 25 -7.32 25 -8 25 C-8.33 17.74 -8.66 10.48 -9 3 C-8.34 3 -7.68 3 -7 3 C-6.67 2.01 -6.34 1.02 -6 0 C-3 -1 -3 -1 0 0 Z " fill="#CD3C3C" transform="translate(232,255)"/>
<path d="M0 0 C0.99 0.495 0.99 0.495 2 1 C1.67 15.85 1.34 30.7 1 46 C2.32 46.33 3.64 46.66 5 47 C3.68 47.66 2.36 48.32 1 49 C0 48 0 48 -0.12025452 46.05747986 C-0.11803391 45.20698563 -0.11581329 44.35649139 -0.11352539 43.48022461 C-0.11344986 42.51930405 -0.11337433 41.55838348 -0.11329651 40.56834412 C-0.10813522 39.523564 -0.10297394 38.47878387 -0.09765625 37.40234375 C-0.0962413 36.33834854 -0.09482635 35.27435333 -0.09336853 34.17811584 C-0.08775064 30.76454917 -0.07519511 27.351047 -0.0625 23.9375 C-0.05748731 21.62955824 -0.052924 19.32161545 -0.04882812 17.01367188 C-0.0377754 11.34242574 -0.02101987 5.67121747 0 0 Z " fill="#AE3B3A" transform="translate(215,199)"/>
<path d="M0 0 C-0.78375 0.37125 -1.5675 0.7425 -2.375 1.125 C-5.60628829 3.43306306 -6.07506212 5.21616321 -7 9 C-9 6 -9 6 -9 3 C-8.34 3 -7.68 3 -7 3 C-6.67 2.01 -6.34 1.02 -6 0 C-3 -1 -3 -1 0 0 Z " fill="#DA3E3F" transform="translate(232,255)"/>
<path d="M0 0 C0.33 0.66 0.66 1.32 1 2 C-4.625 6 -4.625 6 -8 6 C-7.67 5.01 -7.34 4.02 -7 3 C-3.4375 1.3125 -3.4375 1.3125 0 0 Z " fill="#DC3634" transform="translate(251,231)"/>
<path d="" fill="#000000" transform="translate(0,0)"/>
</svg>
